<svg width="1500" height="1500" viewBox="0 0 1500 1500" fill="none" xmlns="http://www.w3.org/2000/svg">
<rect width="1500" height="1500" fill="#FF4C4C"/>
<path d="M295.564 622.847C295.564 657.163 274.121 684.982 247.669 684.982C221.217 684.982 199.773 657.163 199.773 622.847C199.773 588.53 221.217 540 247.669 540C274.121 540 295.564 588.53 295.564 622.847Z" fill="white"/>
<path d="M258.276 751.647C258.276 875.683 265.173 922.518 248.375 922.518C228.346 922.518 236.27 874.233 236.27 751.647C236.27 697.926 242.666 630.614 248.375 630.614C254.084 630.614 258.276 698.574 258.276 751.647Z" fill="white"/>
<path d="M378.662 747.764C378.662 871.8 385.559 918.635 368.761 918.635C348.733 918.635 356.656 870.35 356.656 747.764C356.656 694.043 363.052 626.73 368.761 626.73C374.47 626.73 378.662 694.69 378.662 747.764Z" fill="white"/>
<path d="M465.123 867.491V675.221H530.089C545.11 675.221 557.44 677.788 567.078 682.92C576.717 687.989 583.852 694.968 588.483 703.855C593.115 712.743 595.431 722.851 595.431 734.179C595.431 745.507 593.115 755.553 588.483 764.315C583.852 773.077 576.748 779.962 567.172 784.969C557.596 789.913 545.36 792.386 530.464 792.386H477.891V771.356H529.713C539.978 771.356 548.239 769.854 554.498 766.85C560.82 763.846 565.388 759.59 568.205 754.082C571.084 748.512 572.523 741.877 572.523 734.179C572.523 726.481 571.084 719.753 568.205 713.994C565.326 708.236 560.726 703.793 554.404 700.663C548.083 697.471 539.727 695.875 529.338 695.875H488.406V867.491H465.123ZM555.625 781.12L602.941 867.491H575.903L529.338 781.12H555.625ZM673.657 870.871C664.519 870.871 656.227 869.149 648.779 865.707C641.331 862.202 635.416 857.164 631.035 850.592C626.654 843.958 624.463 835.947 624.463 826.558C624.463 818.297 626.091 811.6 629.345 806.468C632.6 801.273 636.95 797.205 642.395 794.263C647.84 791.322 653.848 789.131 660.42 787.691C667.054 786.189 673.72 785 680.417 784.124C689.179 782.997 696.283 782.152 701.728 781.589C707.236 780.963 711.241 779.931 713.745 778.491C716.311 777.052 717.594 774.548 717.594 770.981V770.23C717.594 760.967 715.059 753.769 709.989 748.637C704.982 743.505 697.378 740.938 687.176 740.938C676.599 740.938 668.306 743.254 662.298 747.886C656.289 752.517 652.065 757.462 649.624 762.719L628.594 755.208C632.349 746.446 637.356 739.624 643.615 734.742C649.937 729.798 656.821 726.356 664.269 724.415C671.78 722.413 679.165 721.411 686.425 721.411C691.057 721.411 696.377 721.974 702.385 723.101C708.456 724.165 714.308 726.387 719.941 729.767C725.636 733.146 730.362 738.247 734.117 745.069C737.872 751.891 739.75 761.029 739.75 772.483V867.491H717.594V847.963H716.467C714.965 851.093 712.462 854.441 708.957 858.009C705.452 861.576 700.789 864.612 694.968 867.115C689.148 869.619 682.044 870.871 673.657 870.871ZM677.037 850.968C685.799 850.968 693.185 849.246 699.193 845.804C705.264 842.362 709.833 837.918 712.9 832.473C716.029 827.028 717.594 821.301 717.594 815.293V795.014C716.655 796.141 714.59 797.174 711.398 798.112C708.268 798.989 704.638 799.771 700.507 800.459C696.439 801.085 692.465 801.649 688.584 802.149C684.767 802.587 681.669 802.963 679.29 803.276C673.532 804.027 668.15 805.247 663.143 806.937C658.198 808.564 654.193 811.037 651.126 814.354C648.122 817.608 646.619 822.052 646.619 827.685C646.619 835.383 649.467 841.204 655.163 845.147C660.921 849.027 668.212 850.968 677.037 850.968ZM838.771 870.495C825.252 870.495 813.611 867.303 803.848 860.919C794.084 854.535 786.573 845.742 781.316 834.538C776.059 823.335 773.43 810.536 773.43 796.141C773.43 781.495 776.121 768.571 781.504 757.368C786.949 746.102 794.522 737.308 804.223 730.987C813.987 724.603 825.378 721.411 838.396 721.411C848.535 721.411 857.673 723.289 865.809 727.044C873.946 730.799 880.611 736.057 885.806 742.816C891.001 749.576 894.224 757.462 895.476 766.474H873.32C871.63 759.903 867.875 754.082 862.054 749.012C856.296 743.88 848.535 741.314 838.771 741.314C830.134 741.314 822.561 743.567 816.052 748.073C809.606 752.517 804.567 758.807 800.937 766.944C797.37 775.017 795.586 784.5 795.586 795.39C795.586 806.53 797.338 816.231 800.843 824.493C804.411 832.755 809.418 839.17 815.864 843.739C822.373 848.308 830.009 850.592 838.771 850.592C844.529 850.592 849.756 849.591 854.45 847.588C859.144 845.585 863.118 842.706 866.373 838.951C869.627 835.196 871.943 830.689 873.32 825.432H895.476C894.224 833.944 891.126 841.611 886.182 848.433C881.3 855.192 874.822 860.575 866.748 864.58C858.737 868.523 849.411 870.495 838.771 870.495ZM927.865 867.491V723.289H950.021V867.491H927.865ZM939.131 699.255C934.812 699.255 931.088 697.784 927.959 694.843C924.892 691.901 923.359 688.365 923.359 684.234C923.359 680.103 924.892 676.567 927.959 673.625C931.088 670.684 934.812 669.213 939.131 669.213C943.449 669.213 947.142 670.684 950.209 673.625C953.338 676.567 954.903 680.103 954.903 684.234C954.903 688.365 953.338 691.901 950.209 694.843C947.142 697.784 943.449 699.255 939.131 699.255ZM990.601 921.567V723.289H1012.01V746.196H1014.63C1016.26 743.692 1018.52 740.5 1021.39 736.62C1024.34 732.677 1028.53 729.172 1033.97 726.105C1039.48 722.976 1046.93 721.411 1056.32 721.411C1068.46 721.411 1079.16 724.447 1088.43 730.518C1097.69 736.589 1104.92 745.194 1110.11 756.335C1115.31 767.476 1117.9 780.619 1117.9 795.765C1117.9 811.037 1115.31 824.274 1110.11 835.477C1104.92 846.618 1097.72 855.255 1088.52 861.388C1079.32 867.459 1068.71 870.495 1056.69 870.495C1047.43 870.495 1040.01 868.962 1034.44 865.895C1028.87 862.765 1024.59 859.229 1021.58 855.286C1018.58 851.281 1016.26 847.963 1014.63 845.335H1012.76V921.567H990.601ZM1012.38 795.39C1012.38 806.28 1013.98 815.887 1017.17 824.211C1020.36 832.473 1025.02 838.951 1031.16 843.645C1037.29 848.276 1044.8 850.592 1053.69 850.592C1062.95 850.592 1070.68 848.151 1076.88 843.269C1083.14 838.325 1087.83 831.691 1090.96 823.366C1094.15 814.98 1095.75 805.654 1095.75 795.39C1095.75 785.251 1094.18 776.113 1091.05 767.976C1087.99 759.777 1083.32 753.3 1077.07 748.543C1070.87 743.724 1063.08 741.314 1053.69 741.314C1044.68 741.314 1037.1 743.598 1030.97 748.167C1024.84 752.674 1020.21 758.995 1017.08 767.131C1013.95 775.205 1012.38 784.625 1012.38 795.39ZM1212.16 870.495C1198.27 870.495 1186.28 867.428 1176.21 861.295C1166.19 855.098 1158.46 846.461 1153.02 835.383C1147.63 824.243 1144.94 811.287 1144.94 796.516C1144.94 781.746 1147.63 768.727 1153.02 757.462C1158.46 746.133 1166.03 737.308 1175.74 730.987C1185.5 724.603 1196.89 721.411 1209.91 721.411C1217.42 721.411 1224.84 722.663 1232.16 725.166C1239.48 727.67 1246.15 731.738 1252.16 737.371C1258.16 742.941 1262.95 750.327 1266.52 759.527C1270.09 768.727 1271.87 780.056 1271.87 793.512V802.9H1160.71V783.748H1249.34C1249.34 775.612 1247.71 768.352 1244.46 761.968C1241.26 755.584 1236.7 750.546 1230.75 746.853C1224.87 743.16 1217.92 741.314 1209.91 741.314C1201.08 741.314 1193.45 743.505 1187 747.886C1180.62 752.204 1175.7 757.837 1172.26 764.784C1168.82 771.732 1167.1 779.18 1167.1 787.128V799.896C1167.1 810.786 1168.98 820.018 1172.73 827.591C1176.55 835.102 1181.84 840.828 1188.6 844.771C1195.36 848.652 1203.21 850.592 1212.16 850.592C1217.98 850.592 1223.24 849.778 1227.93 848.151C1232.69 846.461 1236.79 843.958 1240.23 840.641C1243.67 837.261 1246.33 833.068 1248.21 828.061L1269.62 834.069C1267.36 841.329 1263.58 847.713 1258.26 853.221C1252.94 858.666 1246.37 862.922 1238.54 865.989C1230.72 868.993 1221.93 870.495 1212.16 870.495Z" fill="white"/>
<path d="M350.134 582.739C350.134 626.477 351.424 624.612 340.997 626.477C330.571 628.342 331.86 648.784 331.86 582.739C331.86 539 331.86 539 340.997 539C350.134 539 350.134 539 350.134 582.739Z" fill="white"/>
<path d="M350.134 582.739C350.134 626.477 351.424 624.612 340.997 626.477C330.571 628.342 331.86 648.784 331.86 582.739C331.86 539 331.86 539 340.997 539C350.134 539 350.134 539 350.134 582.739Z" fill="white"/>
<path d="M377.148 582.739C377.148 626.477 377.148 626.477 368.011 626.477C358.874 626.477 358.874 626.477 358.874 582.739C358.874 539 358.874 539 368.011 539C377.148 539 377.148 539 377.148 582.739Z" fill="white"/>
<path d="M405.354 582.739C405.354 648.784 407.933 625.648 396.217 626.477C384.501 627.306 387.08 626.477 387.08 582.739C387.08 539 387.08 539 396.217 539C405.354 539 405.354 539 405.354 582.739Z" fill="white"/>
<path d="M405.595 625.73C405.595 640.743 389.077 656.798 368.702 656.798C348.327 656.798 331.81 640.743 331.81 625.73C331.81 572.656 337.635 634.791 369.349 610.196C399.77 634.791 405.595 569.698 405.595 625.73Z" fill="white"/>
<rect x="170" y="950.922" width="1160" height="9.79937" fill="white"/>
</svg>
