<svg width="1160" height="422" viewBox="0 0 1160 422" fill="none" xmlns="http://www.w3.org/2000/svg">
<path d="M125.564 83.8466C125.564 118.163 104.121 145.982 77.6687 145.982C51.2166 145.982 29.7729 118.163 29.7729 83.8466C29.7729 49.5304 51.2166 1 77.6687 1C104.121 1 125.564 49.5304 125.564 83.8466Z" fill="white"/>
<path d="M88.2757 212.647C88.2757 336.683 95.1727 383.518 78.3746 383.518C58.3463 383.518 66.2696 335.233 66.2696 212.647C66.2696 158.926 72.6655 91.6135 78.3746 91.6135C84.0837 91.6135 88.2757 159.574 88.2757 212.647Z" fill="white"/>
<path d="M208.662 208.764C208.662 332.8 215.559 379.635 198.761 379.635C178.733 379.635 186.656 331.35 186.656 208.764C186.656 155.043 193.052 87.73 198.761 87.73C204.47 87.73 208.662 155.69 208.662 208.764Z" fill="white"/>
<path d="M295.123 328.491V136.221H360.089C375.11 136.221 387.44 138.788 397.078 143.92C406.717 148.989 413.852 155.968 418.483 164.855C423.115 173.743 425.431 183.851 425.431 195.179C425.431 206.507 423.115 216.553 418.483 225.315C413.852 234.077 406.748 240.962 397.172 245.969C387.596 250.913 375.36 253.386 360.464 253.386H307.891V232.356H359.713C369.978 232.356 378.239 230.854 384.498 227.85C390.82 224.846 395.388 220.59 398.205 215.082C401.084 209.512 402.523 202.877 402.523 195.179C402.523 187.481 401.084 180.753 398.205 174.994C395.326 169.236 390.726 164.793 384.404 161.663C378.083 158.471 369.727 156.875 359.338 156.875H318.406V328.491H295.123ZM385.625 242.12L432.941 328.491H405.903L359.338 242.12H385.625ZM503.657 331.871C494.519 331.871 486.227 330.149 478.779 326.707C471.331 323.202 465.416 318.164 461.035 311.592C456.654 304.958 454.463 296.947 454.463 287.558C454.463 279.297 456.091 272.6 459.345 267.468C462.6 262.273 466.95 258.205 472.395 255.263C477.84 252.322 483.848 250.131 490.42 248.691C497.054 247.189 503.72 246 510.417 245.124C519.179 243.997 526.283 243.152 531.728 242.589C537.236 241.963 541.241 240.931 543.745 239.491C546.311 238.052 547.594 235.548 547.594 231.981V231.23C547.594 221.967 545.059 214.769 539.989 209.637C534.982 204.505 527.378 201.938 517.176 201.938C506.599 201.938 498.306 204.254 492.298 208.886C486.289 213.517 482.065 218.462 479.624 223.719L458.594 216.208C462.349 207.446 467.356 200.624 473.615 195.742C479.937 190.798 486.821 187.356 494.269 185.415C501.78 183.413 509.165 182.411 516.425 182.411C521.057 182.411 526.377 182.974 532.385 184.101C538.456 185.165 544.308 187.387 549.941 190.767C555.636 194.146 560.362 199.247 564.117 206.069C567.872 212.891 569.75 222.029 569.75 233.483V328.491H547.594V308.963H546.467C544.965 312.093 542.462 315.441 538.957 319.009C535.452 322.576 530.789 325.612 524.968 328.115C519.148 330.619 512.044 331.871 503.657 331.871ZM507.037 311.968C515.799 311.968 523.185 310.246 529.193 306.804C535.264 303.362 539.833 298.918 542.9 293.473C546.029 288.028 547.594 282.301 547.594 276.293V256.014C546.655 257.141 544.59 258.174 541.398 259.112C538.268 259.989 534.638 260.771 530.507 261.459C526.439 262.085 522.465 262.649 518.584 263.149C514.767 263.587 511.669 263.963 509.29 264.276C503.532 265.027 498.15 266.247 493.143 267.937C488.198 269.564 484.193 272.037 481.126 275.354C478.122 278.608 476.619 283.052 476.619 288.685C476.619 296.383 479.467 302.204 485.163 306.147C490.921 310.027 498.212 311.968 507.037 311.968ZM668.771 331.495C655.252 331.495 643.611 328.303 633.848 321.919C624.084 315.535 616.573 306.742 611.316 295.538C606.059 284.335 603.43 271.536 603.43 257.141C603.43 242.495 606.121 229.571 611.504 218.368C616.949 207.102 624.522 198.308 634.223 191.987C643.987 185.603 655.378 182.411 668.396 182.411C678.535 182.411 687.673 184.289 695.809 188.044C703.946 191.799 710.611 197.057 715.806 203.816C721.001 210.576 724.224 218.462 725.476 227.474H703.32C701.63 220.903 697.875 215.082 692.054 210.012C686.296 204.88 678.535 202.314 668.771 202.314C660.134 202.314 652.561 204.567 646.052 209.073C639.606 213.517 634.567 219.807 630.937 227.944C627.37 236.017 625.586 245.5 625.586 256.39C625.586 267.53 627.338 277.231 630.843 285.493C634.411 293.755 639.418 300.17 645.864 304.739C652.373 309.308 660.009 311.592 668.771 311.592C674.529 311.592 679.756 310.591 684.45 308.588C689.144 306.585 693.118 303.706 696.373 299.951C699.627 296.196 701.943 291.689 703.32 286.432H725.476C724.224 294.944 721.126 302.611 716.182 309.433C711.3 316.192 704.822 321.575 696.748 325.58C688.737 329.523 679.411 331.495 668.771 331.495ZM757.865 328.491V184.289H780.021V328.491H757.865ZM769.131 160.255C764.812 160.255 761.088 158.784 757.959 155.843C754.892 152.901 753.359 149.365 753.359 145.234C753.359 141.103 754.892 137.567 757.959 134.625C761.088 131.684 764.812 130.213 769.131 130.213C773.449 130.213 777.142 131.684 780.209 134.625C783.338 137.567 784.903 141.103 784.903 145.234C784.903 149.365 783.338 152.901 780.209 155.843C777.142 158.784 773.449 160.255 769.131 160.255ZM820.601 382.567V184.289H842.006V207.196H844.635C846.262 204.692 848.515 201.5 851.394 197.62C854.336 193.677 858.529 190.172 863.975 187.105C869.482 183.976 876.93 182.411 886.318 182.411C898.46 182.411 909.163 185.447 918.426 191.518C927.689 197.589 934.918 206.194 940.112 217.335C945.307 228.476 947.905 241.619 947.905 256.765C947.905 272.037 945.307 285.274 940.112 296.477C934.918 307.618 927.72 316.255 918.52 322.388C909.319 328.459 898.711 331.495 886.694 331.495C877.431 331.495 870.014 329.962 864.444 326.895C858.874 323.765 854.586 320.229 851.582 316.286C848.578 312.281 846.262 308.963 844.635 306.335H842.757V382.567H820.601ZM842.382 256.39C842.382 267.28 843.978 276.887 847.17 285.211C850.362 293.473 855.025 299.951 861.158 304.645C867.292 309.276 874.802 311.592 883.69 311.592C892.953 311.592 900.682 309.151 906.878 304.269C913.137 299.325 917.831 292.691 920.961 284.366C924.153 275.98 925.749 266.654 925.749 256.39C925.749 246.251 924.184 237.113 921.055 228.976C917.988 220.777 913.325 214.3 907.066 209.543C900.87 204.724 893.078 202.314 883.69 202.314C874.677 202.314 867.104 204.598 860.97 209.167C854.837 213.674 850.205 219.995 847.076 228.131C843.946 236.205 842.382 245.625 842.382 256.39ZM1042.16 331.495C1028.27 331.495 1016.28 328.428 1006.21 322.295C996.191 316.098 988.461 307.461 983.016 296.383C977.634 285.243 974.943 272.287 974.943 257.516C974.943 242.746 977.634 229.727 983.016 218.462C988.461 207.133 996.035 198.308 1005.74 191.987C1015.5 185.603 1026.89 182.411 1039.91 182.411C1047.42 182.411 1054.84 183.663 1062.16 186.166C1069.48 188.67 1076.15 192.738 1082.16 198.371C1088.16 203.941 1092.95 211.327 1096.52 220.527C1100.09 229.727 1101.87 241.056 1101.87 254.512V263.9H990.715V244.748H1079.34C1079.34 236.612 1077.71 229.352 1074.46 222.968C1071.26 216.584 1066.7 211.546 1060.75 207.853C1054.87 204.16 1047.92 202.314 1039.91 202.314C1031.08 202.314 1023.45 204.505 1017 208.886C1010.62 213.204 1005.7 218.837 1002.26 225.784C998.82 232.732 997.099 240.18 997.099 248.128V260.896C997.099 271.786 998.976 281.018 1002.73 288.591C1006.55 296.102 1011.84 301.828 1018.6 305.771C1025.36 309.652 1033.21 311.592 1042.16 311.592C1047.98 311.592 1053.24 310.778 1057.93 309.151C1062.69 307.461 1066.79 304.958 1070.23 301.641C1073.67 298.261 1076.33 294.068 1078.21 289.061L1099.62 295.069C1097.36 302.329 1093.58 308.713 1088.26 314.221C1082.94 319.666 1076.37 323.922 1068.54 326.989C1060.72 329.993 1051.93 331.495 1042.16 331.495Z" fill="white"/>
<path d="M180.134 43.7385C180.134 87.4771 181.424 85.6122 170.997 87.4771C160.571 89.3419 161.86 109.784 161.86 43.7385C161.86 0 161.86 0 170.997 0C180.134 0 180.134 0 180.134 43.7385Z" fill="white"/>
<path d="M180.134 43.7385C180.134 87.4771 181.424 85.6122 170.997 87.4771C160.571 89.3419 161.86 109.784 161.86 43.7385C161.86 0 161.86 0 170.997 0C180.134 0 180.134 0 180.134 43.7385Z" fill="white"/>
<path d="M207.148 43.7385C207.148 87.4771 207.148 87.4771 198.011 87.4771C188.874 87.4771 188.874 87.4771 188.874 43.7385C188.874 6.67397e-06 188.874 5.62139e-06 198.011 5.62139e-06C207.148 5.62139e-06 207.148 6.67397e-06 207.148 43.7385Z" fill="white"/>
<path d="M235.354 43.7385C235.354 109.784 237.933 86.6479 226.217 87.4771C214.501 88.3062 217.08 87.4771 217.08 43.7385C217.08 0 217.08 6.06132e-07 226.217 6.06132e-07C235.354 6.06132e-07 235.354 0 235.354 43.7385Z" fill="white"/>
<path d="M235.595 86.73C235.595 101.743 219.077 117.798 198.702 117.798C178.327 117.798 161.81 101.743 161.81 86.73C161.81 33.6565 167.635 95.7914 199.349 71.1963C229.77 95.7914 235.595 30.6975 235.595 86.73Z" fill="white"/>
<rect y="411.922" width="1160" height="9.79937" fill="white"/>
</svg>
