<svg width="1160" height="421" viewBox="0 0 1160 421" fill="none" xmlns="http://www.w3.org/2000/svg">
<path d="M125.564 82.8466C125.564 117.163 104.121 144.982 77.6687 144.982C51.2166 144.982 29.7729 117.163 29.7729 82.8466C29.7729 48.5304 51.2166 0 77.6687 0C104.121 0 125.564 48.5304 125.564 82.8466Z" fill="white"/>
<path d="M88.2757 211.647C88.2757 335.683 95.1727 382.518 78.3746 382.518C58.3463 382.518 66.2696 334.233 66.2696 211.647C66.2696 157.926 72.6655 90.6135 78.3746 90.6135C84.0837 90.6135 88.2757 158.574 88.2757 211.647Z" fill="white"/>
<path d="M208.662 207.764C208.662 331.8 215.559 378.635 198.761 378.635C178.733 378.635 186.656 330.35 186.656 207.764C186.656 154.043 193.052 86.73 198.761 86.73C204.47 86.73 208.662 154.69 208.662 207.764Z" fill="white"/>
<path d="M295.123 327.491V135.221H360.089C375.11 135.221 387.44 137.788 397.078 142.92C406.717 147.989 413.852 154.968 418.483 163.855C423.115 172.743 425.431 182.851 425.431 194.179C425.431 205.507 423.115 215.553 418.483 224.315C413.852 233.077 406.748 239.962 397.172 244.969C387.596 249.913 375.36 252.386 360.464 252.386H307.891V231.356H359.713C369.978 231.356 378.239 229.854 384.498 226.85C390.82 223.846 395.388 219.59 398.205 214.082C401.084 208.512 402.523 201.877 402.523 194.179C402.523 186.481 401.084 179.753 398.205 173.994C395.326 168.236 390.726 163.793 384.404 160.663C378.083 157.471 369.727 155.875 359.338 155.875H318.406V327.491H295.123ZM385.625 241.12L432.941 327.491H405.903L359.338 241.12H385.625ZM503.657 330.871C494.519 330.871 486.227 329.149 478.779 325.707C471.331 322.202 465.416 317.164 461.035 310.592C456.654 303.958 454.463 295.947 454.463 286.558C454.463 278.297 456.091 271.6 459.345 266.468C462.6 261.273 466.95 257.205 472.395 254.263C477.84 251.322 483.848 249.131 490.42 247.691C497.054 246.189 503.72 245 510.417 244.124C519.179 242.997 526.283 242.152 531.728 241.589C537.236 240.963 541.241 239.931 543.745 238.491C546.311 237.052 547.594 234.548 547.594 230.981V230.23C547.594 220.967 545.059 213.769 539.989 208.637C534.982 203.505 527.378 200.938 517.176 200.938C506.599 200.938 498.306 203.254 492.298 207.886C486.289 212.517 482.065 217.462 479.624 222.719L458.594 215.208C462.349 206.446 467.356 199.624 473.615 194.742C479.937 189.798 486.821 186.356 494.269 184.415C501.78 182.413 509.165 181.411 516.425 181.411C521.057 181.411 526.377 181.974 532.385 183.101C538.456 184.165 544.308 186.387 549.941 189.767C555.636 193.146 560.362 198.247 564.117 205.069C567.872 211.891 569.75 221.029 569.75 232.483V327.491H547.594V307.963H546.467C544.965 311.093 542.462 314.441 538.957 318.009C535.452 321.576 530.789 324.612 524.968 327.115C519.148 329.619 512.044 330.871 503.657 330.871ZM507.037 310.968C515.799 310.968 523.185 309.246 529.193 305.804C535.264 302.362 539.833 297.918 542.9 292.473C546.029 287.028 547.594 281.301 547.594 275.293V255.014C546.655 256.141 544.59 257.174 541.398 258.112C538.268 258.989 534.638 259.771 530.507 260.459C526.439 261.085 522.465 261.649 518.584 262.149C514.767 262.587 511.669 262.963 509.29 263.276C503.532 264.027 498.15 265.247 493.143 266.937C488.198 268.564 484.193 271.037 481.126 274.354C478.122 277.608 476.619 282.052 476.619 287.685C476.619 295.383 479.467 301.204 485.163 305.147C490.921 309.027 498.212 310.968 507.037 310.968ZM668.771 330.495C655.252 330.495 643.611 327.303 633.848 320.919C624.084 314.535 616.573 305.742 611.316 294.538C606.059 283.335 603.43 270.536 603.43 256.141C603.43 241.495 606.121 228.571 611.504 217.368C616.949 206.102 624.522 197.308 634.223 190.987C643.987 184.603 655.378 181.411 668.396 181.411C678.535 181.411 687.673 183.289 695.809 187.044C703.946 190.799 710.611 196.057 715.806 202.816C721.001 209.576 724.224 217.462 725.476 226.474H703.32C701.63 219.903 697.875 214.082 692.054 209.012C686.296 203.88 678.535 201.314 668.771 201.314C660.134 201.314 652.561 203.567 646.052 208.073C639.606 212.517 634.567 218.807 630.937 226.944C627.37 235.017 625.586 244.5 625.586 255.39C625.586 266.53 627.338 276.231 630.843 284.493C634.411 292.755 639.418 299.17 645.864 303.739C652.373 308.308 660.009 310.592 668.771 310.592C674.529 310.592 679.756 309.591 684.45 307.588C689.144 305.585 693.118 302.706 696.373 298.951C699.627 295.196 701.943 290.689 703.32 285.432H725.476C724.224 293.944 721.126 301.611 716.182 308.433C711.3 315.192 704.822 320.575 696.748 324.58C688.737 328.523 679.411 330.495 668.771 330.495ZM757.865 327.491V183.289H780.021V327.491H757.865ZM769.131 159.255C764.812 159.255 761.088 157.784 757.959 154.843C754.892 151.901 753.359 148.365 753.359 144.234C753.359 140.103 754.892 136.567 757.959 133.625C761.088 130.684 764.812 129.213 769.131 129.213C773.449 129.213 777.142 130.684 780.209 133.625C783.338 136.567 784.903 140.103 784.903 144.234C784.903 148.365 783.338 151.901 780.209 154.843C777.142 157.784 773.449 159.255 769.131 159.255ZM820.601 381.567V183.289H842.006V206.196H844.635C846.262 203.692 848.515 200.5 851.394 196.62C854.336 192.677 858.529 189.172 863.975 186.105C869.482 182.976 876.93 181.411 886.318 181.411C898.46 181.411 909.163 184.447 918.426 190.518C927.689 196.589 934.918 205.194 940.112 216.335C945.307 227.476 947.905 240.619 947.905 255.765C947.905 271.037 945.307 284.274 940.112 295.477C934.918 306.618 927.72 315.255 918.52 321.388C909.319 327.459 898.711 330.495 886.694 330.495C877.431 330.495 870.014 328.962 864.444 325.895C858.874 322.765 854.586 319.229 851.582 315.286C848.578 311.281 846.262 307.963 844.635 305.335H842.757V381.567H820.601ZM842.382 255.39C842.382 266.28 843.978 275.887 847.17 284.211C850.362 292.473 855.025 298.951 861.158 303.645C867.292 308.276 874.802 310.592 883.69 310.592C892.953 310.592 900.682 308.151 906.878 303.269C913.137 298.325 917.831 291.691 920.961 283.366C924.153 274.98 925.749 265.654 925.749 255.39C925.749 245.251 924.184 236.113 921.055 227.976C917.988 219.777 913.325 213.3 907.066 208.543C900.87 203.724 893.078 201.314 883.69 201.314C874.677 201.314 867.104 203.598 860.97 208.167C854.837 212.674 850.205 218.995 847.076 227.131C843.946 235.205 842.382 244.625 842.382 255.39ZM1042.16 330.495C1028.27 330.495 1016.28 327.428 1006.21 321.295C996.191 315.098 988.461 306.461 983.016 295.383C977.634 284.243 974.943 271.287 974.943 256.516C974.943 241.746 977.634 228.727 983.016 217.462C988.461 206.133 996.035 197.308 1005.74 190.987C1015.5 184.603 1026.89 181.411 1039.91 181.411C1047.42 181.411 1054.84 182.663 1062.16 185.166C1069.48 187.67 1076.15 191.738 1082.16 197.371C1088.16 202.941 1092.95 210.327 1096.52 219.527C1100.09 228.727 1101.87 240.056 1101.87 253.512V262.9H990.715V243.748H1079.34C1079.34 235.612 1077.71 228.352 1074.46 221.968C1071.26 215.584 1066.7 210.546 1060.75 206.853C1054.87 203.16 1047.92 201.314 1039.91 201.314C1031.08 201.314 1023.45 203.505 1017 207.886C1010.62 212.204 1005.7 217.837 1002.26 224.784C998.82 231.732 997.099 239.18 997.099 247.128V259.896C997.099 270.786 998.976 280.018 1002.73 287.591C1006.55 295.102 1011.84 300.828 1018.6 304.771C1025.36 308.652 1033.21 310.592 1042.16 310.592C1047.98 310.592 1053.24 309.778 1057.93 308.151C1062.69 306.461 1066.79 303.958 1070.23 300.641C1073.67 297.261 1076.33 293.068 1078.21 288.061L1099.62 294.069C1097.36 301.329 1093.58 307.713 1088.26 313.221C1082.94 318.666 1076.37 322.922 1068.54 325.989C1060.72 328.993 1051.93 330.495 1042.16 330.495Z" fill="white"/>
<path d="M179.378 58.3967C179.378 109.793 180.671 107.602 170.214 109.793C159.758 111.985 161.051 136.006 161.051 58.3967C161.051 7 161.051 7 170.214 7C179.378 7 179.378 7 179.378 58.3967Z" fill="white"/>
<path d="M179.378 58.3967C179.378 109.793 180.671 107.602 170.214 109.793C159.758 111.985 161.051 136.006 161.051 58.3967C161.051 7 161.051 7 170.214 7C179.378 7 179.378 7 179.378 58.3967Z" fill="white"/>
<path d="M206.471 58.3967C206.471 109.793 206.471 109.793 197.307 109.793C188.143 109.793 188.143 109.793 188.143 58.3967C188.143 7.00001 188.143 7.00001 197.307 7.00001C206.471 7.00001 206.471 7.00001 206.471 58.3967Z" fill="white"/>
<path d="M234.758 58.3967C234.758 136.006 237.345 108.819 225.595 109.793C213.845 110.768 216.431 109.793 216.431 58.3967C216.431 7 216.431 7 225.595 7C234.758 7 234.758 7 234.758 58.3967Z" fill="white"/>
<path d="M235 108.555C235 126.167 218.435 145 198 145C177.565 145 161 126.167 161 108.555C161 46.295 166.842 119.185 198.649 90.3326C229.158 119.185 235 42.8239 235 108.555Z" fill="white"/>
<rect y="410.922" width="1160" height="9.79937" fill="white"/>
</svg>
